<?xml version="1.0" encoding="iso-8859-1"?>
<!-- Generator: Adobe Illustrator 19.0.0, SVG Export Plug-In . SVG Version: 6.00 Build 0)  -->
<svg version="1.1" id="Capa_1" xmlns="http://www.w3.org/2000/svg" xmlns:xlink="http://www.w3.org/1999/xlink" x="0px" y="0px"
	 viewBox="0 0 512 512" style="enable-background:new 0 0 512 512;" xml:space="preserve">
<rect x="41.904" y="101.952" style="fill:#3E4347;" width="48.32" height="357.136"/>
<path style="fill:#5A5F63;" d="M123.168,494.016H8.896v-10.448c0-13.52,10.96-24.496,24.496-24.496h65.28
	c13.52,0,24.496,10.96,24.496,24.496V494.016z"/>
<circle style="fill:#E24B4B;" cx="66.032" cy="65.984" r="48"/>
<rect x="421.84" y="101.952" style="fill:#3E4347;" width="48.32" height="357.136"/>
<path style="fill:#5A5F63;" d="M503.104,494.016H388.832v-10.448c0-13.52,10.96-24.496,24.496-24.496h65.28
	c13.52,0,24.496,10.96,24.496,24.496V494.016z"/>
<circle style="fill:#E24B4B;" cx="445.968" cy="65.984" r="48"/>
<path style="fill:#FFD83B;" d="M496,314.512H16c-8.832,0-16-7.168-16-16v-140.96c0-8.832,7.168-16,16-16h480c8.832,0,16,7.168,16,16
	v140.96C512,307.36,504.832,314.512,496,314.512z"/>
<g>
	<polygon style="fill:#3F4347;" points="94.544,157.568 57.744,298.528 24.304,298.528 61.104,157.568 	"/>
	<polygon style="fill:#3F4347;" points="173.264,157.568 136.464,298.528 102.864,298.528 139.824,157.568 	"/>
	<polygon style="fill:#3F4347;" points="251.824,157.568 215.024,298.528 181.584,298.528 218.384,157.568 	"/>
	<polygon style="fill:#3F4347;" points="330.384,157.568 293.584,298.528 260.144,298.528 296.944,157.568 	"/>
	<polygon style="fill:#3F4347;" points="409.104,157.568 372.304,298.528 338.704,298.528 375.504,157.568 	"/>
	<polygon style="fill:#3F4347;" points="487.664,157.568 450.864,298.528 417.424,298.528 454.224,157.568 	"/>
</g>
<g>
</g>
<g>
</g>
<g>
</g>
<g>
</g>
<g>
</g>
<g>
</g>
<g>
</g>
<g>
</g>
<g>
</g>
<g>
</g>
<g>
</g>
<g>
</g>
<g>
</g>
<g>
</g>
<g>
</g>
</svg>
