<?xml version="1.0"?>
<svg xmlns="http://www.w3.org/2000/svg" xmlns:xlink="http://www.w3.org/1999/xlink" xmlns:svgjs="http://svgjs.com/svgjs" version="1.1" width="512" height="512" x="0" y="0" viewBox="0 0 64 64" style="enable-background:new 0 0 512 512" xml:space="preserve" class=""><g><g xmlns="http://www.w3.org/2000/svg" id="drone"><path d="M27.707,20.293l-1.414,1.414.707.707V36.586l-.707.707,1.414,1.414,1-1A1,1,0,0,0,29,37V22a1,1,0,0,0-.293-.707Z" fill="#054653" data-original="#000000" style="" class=""/><path d="M37.707,21.707l-1.414-1.414-1,1A1,1,0,0,0,35,22V37a1,1,0,0,0,.293.707l1,1,1.414-1.414L37,36.586V22.414Z" fill="#054653" data-original="#000000" style="" class=""/><path d="M62.021,40.808l-2.829-2.829a1,1,0,0,0-1.352-.056l-7.226,6.114a6.021,6.021,0,0,0-3.233.567L41,35.679V29.3l6.557-9.83A5.928,5.928,0,0,0,50,20c.2,0,.4-.035.6-.054l7.252,6.124a1,1,0,0,0,1.352-.057l2.82-2.82a1,1,0,0,0,.057-1.352l-6.11-7.236a5.975,5.975,0,0,0-6.573-6.572L42.155,1.926a1,1,0,0,0-1.352.057L37.983,4.8a1,1,0,0,0-.057,1.352l6.124,7.251a5.975,5.975,0,0,0,.364,2.776l-3.7,2.222A4.991,4.991,0,0,0,36,15H28a4.991,4.991,0,0,0-4.715,3.4l-3.7-2.223A5.974,5.974,0,0,0,19.95,13.4l6.127-7.241a1,1,0,0,0-.056-1.353L23.192,1.979a1,1,0,0,0-1.352-.056L14.614,8.037a5.975,5.975,0,0,0-6.577,6.577L1.923,21.839a1,1,0,0,0,.056,1.353l2.829,2.829a1,1,0,0,0,1.352.056L13.4,19.949c.2.02.4.055.6.055a5.917,5.917,0,0,0,2.439-.528L23,29.3v6.376l-6.383,8.928a6.019,6.019,0,0,0-3.235-.573L6.16,37.923a1,1,0,0,0-1.352.056L1.979,40.808a1,1,0,0,0-.056,1.353l6.114,7.225A5.986,5.986,0,0,0,14,56c.2,0,.4-.035.6-.055l7.242,6.128a1,1,0,0,0,1.352-.056l2.829-2.829a1,1,0,0,0,.056-1.353L19.95,50.6a5.966,5.966,0,0,0-.364-2.78l3.772-2.266.672,2.691A1,1,0,0,0,25,49H39a1,1,0,0,0,.97-.757l.672-2.691,3.774,2.268a6.013,6.013,0,0,0-.379,2.794l-6.114,7.225a1,1,0,0,0,.056,1.353l2.829,2.829a1,1,0,0,0,1.352.056L49.4,55.949c.2.02.4.055.6.055a5.986,5.986,0,0,0,5.965-6.618l6.114-7.225A1,1,0,0,0,62.021,40.808ZM16.211,17.331a4.024,4.024,0,0,1-.466.251L16.2,16.2l1.376-.459c-.053.109-.1.222-.159.327a3.729,3.729,0,0,1-1.211,1.258ZM12.262,10.4,11.8,11.8l-1.4.466A3.895,3.895,0,0,1,12.262,10.4ZM5.571,23.956,4.044,22.429l7-8.276,1.855-.618a1,1,0,0,0,.632-.633l.619-1.856,8.276-7,1.527,1.527-7,8.276-1.855.618a1,1,0,0,0-.632.633l-.619,1.856Zm12.54-5.587c.045-.042.092-.078.136-.122.114-.114.209-.233.31-.35L23,20.566V25.7ZM23,43.434,18.557,46.1c-.1-.115-.193-.232-.3-.344L23,39.118Zm-6.167,3.733a3.638,3.638,0,0,1,.6.78c.059.1.1.2.149.308L16.2,47.8l-.461-1.38a4.006,4.006,0,0,1,.61.353A3.042,3.042,0,0,1,16.833,47.167ZM10.4,51.739l1.4.466.467,1.4A3.895,3.895,0,0,1,10.4,51.739Zm12.031,8.217-8.276-7L13.534,51.1a1,1,0,0,0-.632-.633l-1.855-.618-7-8.276,1.527-1.527,8.276,7,.619,1.856a1,1,0,0,0,.632.633l1.855.618,7,8.276ZM47.167,47.167a3.964,3.964,0,0,1,1.095-.77L47.8,47.8l-1.4.466A3.97,3.97,0,0,1,47.167,47.167ZM41,20.566,45.443,17.9c.1.117.2.237.311.351.044.044.09.08.135.121L41,25.7Zm6.167-3.733a3.638,3.638,0,0,1-.6-.78c-.058-.1-.1-.2-.147-.3L47.8,16.2l.45,1.375a3.907,3.907,0,0,1-.487-.265A3.429,3.429,0,0,1,47.167,16.833ZM53.6,12.257,52.2,11.8l-.459-1.4a4.006,4.006,0,0,1,1.09.768A3.965,3.965,0,0,1,53.6,12.257ZM41.567,4.047l8.282,6.994L50.46,12.9a1,1,0,0,0,.638.638l1.861.612,6.994,8.281-1.52,1.52L50.152,16.96l-.43-1.314a.907.907,0,0,0-.026-.089l-.16-.47a1,1,0,0,0-.634-.627l-1.861-.612L40.047,5.567ZM28.281,47l.5-2h6.438l.5,2ZM39,43.877,38.219,47H37.78l-.81-3.243A1,1,0,0,0,36,43H28a1,1,0,0,0-.97.757L26.22,47h-.439L25,43.877V20a3,3,0,0,1,3-3h8a3,3,0,0,1,3,3Zm2-.443V39.118l4.748,6.641c-.109.109-.2.228-.3.344ZM51.738,53.6l.467-1.4,1.4-.466A3.895,3.895,0,0,1,51.738,53.6Zm1.215-3.756-1.855.618a1,1,0,0,0-.632.633l-.619,1.856-8.276,7-1.527-1.527,7-8.276,1.855-.618a1,1,0,0,0,.632-.633l.619-1.856,8.276-7,1.527,1.527Z" fill="#054653" data-original="#000000" style="" class=""/></g></g></svg>
