<svg id="Capa_1" enable-background="new 0 0 511.999 511.999" height="512" viewBox="0 0 511.999 511.999" width="512" xmlns="http://www.w3.org/2000/svg"><g><g><g clip-rule="evenodd" fill-rule="evenodd"><path d="m105.5 207.249 53 60h44.999v-120h-195.999v60zm300.999 0-53 60h-44.999v-120h196v60z" fill="#87bcc4"/><path d="m75.25 237.25v-30h-37.5v30zm406.499 195h-52.5v-30h52.5zm-45-195v-30h37.5v30zm-406.499 195h52.5v-30h-52.5z" fill="#e5ecf5"/><path d="m203.499 132.249h105v150h-105z" fill="#e5ecf5"/><path d="m237.25 282.249h37.5v45h-37.5z" fill="#87bcc4"/><path d="m218.499 432.25h75c8.25 0 15-6.75 15-15v-75c0-8.25-6.75-15-15-15h-75c-8.25 0-15 6.75-15 15v75c0 8.25 6.75 15 15 15zm15.001-52.501c0-12.426 10.074-22.5 22.5-22.5s22.5 10.074 22.5 22.5-10.074 22.5-22.5 22.5c-12.427 0-22.5-10.073-22.5-22.5z" fill="#e5ecf5"/><circle cx="256" cy="379.749" fill="#c4e5f9" r="22.5"/><path d="m429.499 147.249h-30v-52.5c0-8.25 6.75-15 15-15s15 6.75 15 15zm-346.999 0h30v-52.5c0-8.25-6.75-15-15-15s-15 6.75-15 15z" fill="#e5ecf5"/><path d="m399.499 147.249h15v-52.5c0-5.523 3.025-10.373 7.5-12.976-2.21-1.285-4.773-2.024-7.5-2.024-8.25 0-15 6.75-15 15zm-316.999 0h15v-52.5c0-5.523 3.025-10.373 7.5-12.976-2.21-1.285-4.773-2.024-7.5-2.024-8.25 0-15 6.75-15 15z" fill="#cad8eb"/><path d="m30 147.249h-22.5v60h22.5zm300.999 120h-22.5v-120h22.5z" fill="#5fa6b0"/><path d="m30.25 432.25h15v-30h-15zm398.999 0h15v-30h-15zm22.5-225.001h-15v30h15zm-398.999 0h-15v30h15z" fill="#cad8eb"/><path d="m203.499 132.249h22.5v150h-22.5z" fill="#cad8eb"/><path d="m237.25 282.249h15v45h-15z" fill="#5fa6b0"/><path d="m218.499 432.25h22.5c-8.25 0-15-6.75-15-15v-75c0-8.25 6.75-15 15-15h-22.5c-8.25 0-15 6.75-15 15v75c0 8.25 6.75 15 15 15z" fill="#cad8eb"/><path d="m263.5 400.967c-19.878-7.027-19.878-35.409 0-42.436-14.482-5.118-30 5.584-30 21.218s15.518 26.337 30 21.218z" fill="#83c8f1"/></g><g><path d="m240.999 259.75h-15v-15h15zm105-15h-15v-15h15zm-59.999-14.83h-15v-45h15zm-105-15.171h-15v-15h15zm-136-29.999h-15v-15h15zm136-.001h-15v-15h15zm301 0h-15v-15h15zm-30 0h-45v-15h45zm-166-14.829h-15v-15h15z" fill="#fff"/></g></g><g><path d="m301 274.75h-90v-135h37.5v-15h-52.5v165h33.75v15h15v-15h22.5v15h15v-15h33.75v-75h-15z"/><path d="m263.5 139.75h37.5v60h15v-75h-52.5z"/><path d="m511.999 102.249v-15h-76.29c-3.096-8.729-11.433-15-21.21-15s-18.113 6.271-21.209 15h-76.291v15h75v37.5h-61v15h166v45h-93.882l-53 60h-19.118v15h25.882l53-60h19.369v30h18.75v135h15v-135h18.75v-30h30.25v-75h-75v-37.5zm-45.25 127.501h-22.5v-15h22.5zm-59.749-90v-45c0-4.135 3.364-7.5 7.5-7.5s7.5 3.364 7.5 7.5v45z"/><path d="m22.75 439.75h67.5v-45h-67.5zm15-30h37.5v15h-37.5z"/><path d="m97.5 72.25c-9.777 0-18.114 6.271-21.21 15h-76.29v15h75v37.5h-75v30h15v-15h166v-15h-61v-37.5h75v-15h-76.291c-3.096-8.73-11.432-15-21.209-15zm-7.5 67.5v-45c0-4.135 3.364-7.5 7.5-7.5 4.135 0 7.5 3.364 7.5 7.5v45z"/><path d="m421.75 439.75h67.5v-45h-67.5zm15-30h37.5v15h-37.5z"/><path d="m301 417.25c0 4.135-3.364 7.5-7.5 7.5h-75.001c-4.135 0-7.5-3.364-7.5-7.5v-45.001h-15v45.001c0 12.406 10.093 22.5 22.5 22.5h75.001c12.406 0 22.5-10.093 22.5-22.5v-15h-15z"/><path d="m293.5 319.75h-75.001c-12.406 0-22.5 10.093-22.5 22.5v15h15v-15c0-4.136 3.364-7.5 7.5-7.5h75.001c4.135 0 7.5 3.364 7.5 7.5v45.001h15v-45.001c0-12.407-10.094-22.5-22.5-22.5z"/><path d="m286 379.75c0-16.542-13.458-30-30-30s-30 13.458-30 30 13.458 30 30 30 30-13.458 30-30zm-45 0c0-8.271 6.729-15 15-15s15 6.729 15 15-6.729 15-15 15-15-6.729-15-15z"/><path d="m108.882 199.75h-93.882v-15h-15v30h30.25v30h18.75v135h15v-135h18.75v-30h19.369l53 60h25.881v-15h-19.118zm-41.132 30h-22.5v-15h22.5z"/></g></g></svg>