<?xml version="1.0"?>
<svg xmlns="http://www.w3.org/2000/svg" xmlns:xlink="http://www.w3.org/1999/xlink" xmlns:svgjs="http://svgjs.com/svgjs" version="1.1" width="512" height="512" x="0" y="0" viewBox="0 0 393.6 393.6" style="enable-background:new 0 0 512 512" xml:space="preserve" class=""><g>
<g xmlns="http://www.w3.org/2000/svg">
	<g>
		<path d="M314.8,78.8c-30.4-30-72-48.8-118-48.8s-87.6,18.8-118,48.8c-30.4,30-48.8,72-48.8,118s18.8,87.6,48.8,118    c30,30,72,48.8,118,48.8s87.6-18.8,118-48.8c30-30,48.8-72,48.8-118S344.8,109.2,314.8,78.8z M303.2,303.2    c-27.2,27.2-64.8,44-106.4,44s-79.2-16.8-106.4-44c-27.2-27.2-44-64.8-44-106.4c0-41.6,16.8-79.2,44-106.4    c27.2-27.2,64.8-44,106.4-44s79.2,16.8,106.4,44c27.2,27.2,44,64.8,44,106.4C347.6,238.4,330.8,276,303.2,303.2z" fill="#09768d" data-original="#000000" style="" class=""/>
	</g>
</g>
<g xmlns="http://www.w3.org/2000/svg">
	<g>
		<path d="M336,57.6C300.4,22,251.2,0,196.8,0C142.4,0,93.2,22,57.6,57.6C22,93.2,0,142.4,0,196.8C0,251.2,22,300.4,57.6,336    c35.6,35.6,84.8,57.6,139.2,57.6c54.4,0,103.6-22,139.2-57.6c35.6-35.6,57.6-84.8,57.6-139.2S371.6,93.2,336,57.6z M324.8,324.8    c-32.8,32.8-78,52.8-128,52.8s-95.2-20.4-128-52.8C36,292,16,246.8,16,196.8s20.4-95.2,52.8-128c32.8-32.8,78-52.8,128-52.8    s95.2,20.4,128,52.8c32.8,32.8,52.8,78,52.8,128S357.2,292,324.8,324.8z" fill="#09768d" data-original="#000000" style="" class=""/>
	</g>
</g>
<g xmlns="http://www.w3.org/2000/svg">
	<g>
		<path d="M280.8,109.2c-2.4-2-5.2-3.6-8.4-3.6h-48.8c-3.2,0-6.4,1.2-8.4,3.6c-2,2-3.6,5.2-3.6,8.4v43.2H182v-43.2    c0-3.2-1.2-6.4-3.6-8.4c-2-2-5.2-3.6-8.4-3.6h-48.8c-3.2,0-6.4,1.2-8.4,3.6c-2,2-3.6,5.2-3.6,8.4V276c0,3.2,1.2,6.4,3.6,8.4    c2,2,5.2,3.6,8.4,3.6H170c3.2,0,6.4-1.2,8.4-3.6c2-2,3.6-5.2,3.6-8.4v-46.4h29.6V276c0,3.2,1.2,6.4,3.6,8.4c2,2,5.2,3.6,8.4,3.6    h49.2c3.2,0,6.4-1.2,8.4-3.6c2-2,3.6-5.2,3.6-8.4V117.6C284.4,114.4,283.2,111.6,280.8,109.2z M268.8,272h-0.4h-40.8v-50.4    c0-4.4-3.6-8-8-8H174c-4.4,0-8,3.6-8,8V272h-40.8V121.6H166v47.2c0,4.4,3.6,8,8,8h45.6c4.4,0,8-3.6,8-8v-47.2h41.2V272z" fill="#09768d" data-original="#000000" style="" class=""/>
	</g>
</g>
<g xmlns="http://www.w3.org/2000/svg">
</g>
<g xmlns="http://www.w3.org/2000/svg">
</g>
<g xmlns="http://www.w3.org/2000/svg">
</g>
<g xmlns="http://www.w3.org/2000/svg">
</g>
<g xmlns="http://www.w3.org/2000/svg">
</g>
<g xmlns="http://www.w3.org/2000/svg">
</g>
<g xmlns="http://www.w3.org/2000/svg">
</g>
<g xmlns="http://www.w3.org/2000/svg">
</g>
<g xmlns="http://www.w3.org/2000/svg">
</g>
<g xmlns="http://www.w3.org/2000/svg">
</g>
<g xmlns="http://www.w3.org/2000/svg">
</g>
<g xmlns="http://www.w3.org/2000/svg">
</g>
<g xmlns="http://www.w3.org/2000/svg">
</g>
<g xmlns="http://www.w3.org/2000/svg">
</g>
<g xmlns="http://www.w3.org/2000/svg">
</g>
</g></svg>
