<?xml version="1.0" encoding="iso-8859-1"?>
<!-- Generator: Adobe Illustrator 22.1.0, SVG Export Plug-In . SVG Version: 6.00 Build 0)  -->
<svg xmlns="http://www.w3.org/2000/svg" xmlns:xlink="http://www.w3.org/1999/xlink" version="1.1" id="Layer_3" x="0px" y="0px" viewBox="0 0 64 64" style="enable-background:new 0 0 64 64;" xml:space="preserve" width="512" height="512">
<g>
	<g>
		<path style="fill:#9C9C9C;" d="M19,41.787V8c0-3.314-2.686-6-6-6h0C9.686,2,7,4.686,7,8v33.787    c-3.341,2.18-5.429,6.121-4.925,10.511c0.575,5.011,4.654,9.076,9.668,9.632C18.381,62.666,24,57.489,24,51    C24,47.14,22.008,43.75,19,41.787z"/>
	</g>
	<g>
		<path style="fill:#BDBDBD;" d="M11.479,61.889C16.853,61.165,21,56.572,21,51c0-3.86-1.992-7.25-5-9.213V8    c0-2.795-1.914-5.136-4.5-5.803C8.914,2.864,7,5.205,7,8v33.787c-3.341,2.18-5.429,6.121-4.925,10.511    C2.639,57.221,6.588,61.222,11.479,61.889z"/>
	</g>
	<g>
		<path style="fill:#00C0F1;" d="M15,44.294V24h-4v20.294C8.109,45.155,6,47.829,6,51c0,3.866,3.134,7,7,7s7-3.134,7-7    C20,47.829,17.891,45.155,15,44.294z"/>
	</g>
	<g>
		<circle style="fill:#BF9F00;" cx="49" cy="15" r="7"/>
	</g>
	<g>
		<ellipse style="fill:#FFD400;" cx="47.5" cy="15" rx="5.5" ry="6.835"/>
	</g>
	<g>
		<path d="M12.971,62.998c-0.445,0-0.892-0.024-1.339-0.074c-5.484-0.609-9.922-5.03-10.551-10.512    C0.579,48.03,2.455,43.807,6,41.26V8c0-3.86,3.141-7,7-7s7,3.14,7,7v33.26c3.141,2.258,5,5.859,5,9.74    c0,3.408-1.457,6.668-3.998,8.943C18.795,61.918,15.926,62.998,12.971,62.998z M13,3c-2.757,0-5,2.243-5,5v33.787    c0,0.338-0.171,0.653-0.453,0.837c-3.199,2.088-4.915,5.751-4.479,9.56c0.524,4.564,4.219,8.245,8.785,8.751    c2.889,0.322,5.668-0.562,7.815-2.483C21.785,56.557,23,53.84,23,51c0-3.386-1.699-6.517-4.547-8.375    C18.171,42.44,18,42.125,18,41.787V8C18,5.243,15.757,3,13,3z"/>
	</g>
	<g>
		<path d="M13,59c-4.411,0-8-3.589-8-8c0-3.256,2.022-6.204,5-7.414V24c0-0.552,0.447-1,1-1h4c0.553,0,1,0.448,1,1v19.586    c2.978,1.209,5,4.157,5,7.414C21,55.411,17.411,59,13,59z M12,25v19.294c0,0.442-0.291,0.832-0.715,0.958    C8.763,46.004,7,48.367,7,51c0,3.309,2.691,6,6,6s6-2.691,6-6c0-2.633-1.763-4.996-4.285-5.748C14.291,45.126,14,44.736,14,44.294    V25H12z"/>
	</g>
	<g>
		<path d="M15,54c-0.256,0-0.512-0.098-0.707-0.293L11,50.414l-1.293,1.293C9.52,51.895,9.266,52,9,52H6v-2h2.586l1.707-1.707    c0.391-0.391,1.023-0.391,1.414,0L15,51.586l1.293-1.293C16.48,50.105,16.734,50,17,50h3v2h-2.586l-1.707,1.707    C15.512,53.902,15.256,54,15,54z"/>
	</g>
	<g>
		<rect x="14" y="19" width="5" height="2"/>
	</g>
	<g>
		<rect x="14" y="15" width="5" height="2"/>
	</g>
	<g>
		<rect x="14" y="11" width="5" height="2"/>
	</g>
	<g>
		<path d="M49,23c-4.411,0-8-3.589-8-8s3.589-8,8-8s8,3.589,8,8S53.411,23,49,23z M49,9c-3.309,0-6,2.691-6,6s2.691,6,6,6    s6-2.691,6-6S52.309,9,49,9z"/>
	</g>
	<g>
		<rect x="48" y="1" width="2" height="4"/>
	</g>
	<g>
		<rect x="48" y="25" width="2" height="4"/>
	</g>
	<g>
		<rect x="59" y="14" width="4" height="2"/>
	</g>
	<g>
		<rect x="35" y="14" width="4" height="2"/>
	</g>
	<g>
		<rect x="56.5" y="21.379" transform="matrix(0.7071 -0.7071 0.7071 0.7071 0.2244 47.5416)" width="2" height="4.243"/>
	</g>
	<g>
		<rect x="39.5" y="4.379" transform="matrix(0.7071 -0.7071 0.7071 0.7071 7.266 30.5416)" width="2" height="4.243"/>
	</g>
	<g>
		<rect x="55.379" y="5.5" transform="matrix(0.7071 -0.7071 0.7071 0.7071 12.2452 42.5624)" width="4.243" height="2"/>
	</g>
	<g>
		<rect x="38.379" y="22.5" transform="matrix(0.7071 -0.7071 0.7071 0.7071 -4.7548 35.5208)" width="4.243" height="2"/>
	</g>
	<g>
		<rect x="33" y="52" width="2" height="10"/>
	</g>
	<g>
		<path d="M37.293,56.707L34,53.414l-3.293,3.293l-1.414-1.414l4-4c0.391-0.391,1.023-0.391,1.414,0l4,4L37.293,56.707z"/>
	</g>
	<g>
		<rect x="45" y="44" width="2" height="18"/>
	</g>
	<g>
		<path d="M49.293,48.707L46,45.414l-3.293,3.293l-1.414-1.414l4-4c0.391-0.391,1.023-0.391,1.414,0l4,4L49.293,48.707z"/>
	</g>
	<g>
		<rect x="57" y="36" width="2" height="26"/>
	</g>
	<g>
		<path d="M61.293,40.707L58,37.414l-3.293,3.293l-1.414-1.414l4-4c0.391-0.391,1.023-0.391,1.414,0l4,4L61.293,40.707z"/>
	</g>
</g>
</svg>
